<svg xmlns="http://www.w3.org/2000/svg" xmlns:xlink="http://www.w3.org/1999/xlink" viewBox="0 0 986.54 1127.87"><linearGradient id="a" x1="39.84" x2="957.04" y1="446.54" y2="1042.18" gradientUnits="userSpaceOnUse"><stop offset="0" stop-color="#97513d"/><stop offset="1" stop-color="#322d85"/></linearGradient><linearGradient xlink:href="#a" id="b" x1="173.08" x2="409.17" y1="107.29" y2="260.61"/><linearGradient xlink:href="#a" id="c" x1="579.93" x2="816.02" y1="107.29" y2="260.61"/><path fill="url(#a)" d="M171.82 355.39h642.9c73.97 0 134.02 60.05 134.02 134.02v553.06c0 23.28-18.9 42.18-42.18 42.18H79.98c-23.28 0-42.18-18.9-42.18-42.18V489.41c0-73.97 60.05-134.02 134.02-134.02"/><circle cx="291.12" cy="183.95" r="140.73" fill="url(#b)"/><circle cx="697.97" cy="183.95" r="140.73" fill="url(#c)"/><path fill="#fff" d="M325.96 492.44c5.97-5.97 10.19-10.54 14.81-14.71 8.8-7.98 18.95-9.56 25.09-4.22 7.04 6.11 6.02 15.08-3.48 24.6-4.69 4.71-10.24 8.67-16.86 14.2l47.24 37.28c66.43-41.45 139.95-46.17 215.89-7.39l106.89-92.5c-7.46.32-12.23.58-16.99.72-11.88.36-23.75.72-35.65.99-7.17.16-13.44-1.87-13.58-9.6-.12-6.64 5.17-9.54 11.83-10.21 28.55-2.92 57.04-6.4 85.65-8.6 16.64-1.28 22.27 4.17 23.5 20.03 1.34 17.19 2.16 34.41 3.12 51.62.21 2.78.11 5.58-.29 8.35-.46 3.97-2.46 7.64-5.61 10.32s-7.23 4.18-11.48 4.22c-3.99-.35-7.74-2-10.57-4.68s-4.58-6.21-4.93-9.97c-.21-3.7-.01-7.4.58-11.06.58-7.33 1.22-14.67 2.08-25.04-40.64 32.46-77.85 64.2-112.65 97.16 8.14 14.51 16.85 27.6 23.13 41.65 23.44 52.47 20.31 104.68-5.75 155.41-19.37 37.7-53.94 57.03-96.46 65.19-8.66 1.66-17.38 3-27.41 4.72 1.02 23.48 2.03 46.49 3.1 71.27 11.56-.89 21.72-1.78 31.91-2.42 8.31-.84 16.67-1.13 25.02-.86 3.27.24 6.35 1.54 8.72 3.68s3.87 4.99 4.25 8.05c1.45 7.23-1.37 13.65-8.31 16.35a69.2 69.2 0 0 1-21.45 4.02c-12.26.62-24.58.17-37.8.17.92 17.71 1.85 33.89 2.57 50.08.33 7.44.63 14.92.23 22.34a37.2 37.2 0 0 1-3.04 12.08c-1 2.92-2.97 5.46-5.61 7.26-2.64 1.79-5.83 2.75-9.1 2.72-3.27.12-6.49-.76-9.18-2.51s-4.71-4.27-5.75-7.19a52.9 52.9 0 0 1-3.89-16.19c-1.26-18.13-1.91-36.29-2.83-54.44-.21-4.08-.58-8.17-.98-13.84-10.96 0-21.22.16-31.48-.06-6.44-.04-12.88-.52-19.25-1.43-9.85-1.58-14.96-7.37-14.19-14.99.72-7.12 5.63-10.7 16.05-10.91 12.38-.25 24.78-.02 37.17-.15 3.36-.03 6.71-.58 12.17-1.09v-70.84c-10.14-1.06-21.96-1.59-33.48-3.63-67.47-11.97-109.74-53.83-123.76-119.91-9.94-46.86-.51-89.61 26.31-129.57 1.03-1.54 1.88-3.2 1.92-3.27l-41.17-41.5c-6.35 5.66-11.88 10.75-17.62 15.63-2.92 2.49-5.95 5.99-9.38 6.52-4.59.79-9.33-.05-13.3-2.36-4.98-3.6-3.85-9.49-.27-13.88 6.59-8.08 13.76-15.74 21.57-24.57l-59.46-57.58-2.99 1.06c.78 12.81 2.05 25.61 2.15 38.42-.11 7.85-1.05 15.67-2.81 23.34-.34 2.84-1.84 5.45-4.18 7.28s-5.33 2.74-8.37 2.55c-7.01-.21-10.69-4.57-12.08-10.49a56.7 56.7 0 0 1-2.5-16.44c1.54-22.3 3.33-44.59 5.9-66.81 1.65-14.29 6.6-18.39 22.08-19.33 23.71-1.43 47.44-2.49 71.2-3.19 14.24-.41 22.27 4.83 22.42 13.2.15 8.94-8.93 14.17-23.62 13.25-13.58-.85-27.14-2.02-40.7-3.05-.47 1.06-.93 2.13-1.4 3.19l57.09 51.49zm155.36 56.44c-16.33-2.01-38.11 6.11-59.28 16.85-21.22 10.45-38.16 27.22-48.19 47.68-20.76 41.48-16.14 82.61 1.61 123.24 15.22 34.85 43.54 55.85 82.84 63.32 36.37 6.9 72.07 3.41 106.89-7.88 10.7-3.21 20.58-8.48 28.99-15.48 8.42-6.99 15.19-15.56 19.89-25.16 26.02-53.76 24.58-106.51-10.46-156.84-9.07-13.03-20.67-24.14-35.98-30.55-24.72-10.36-50.84-15.14-86.32-15.17h-.01z"/></svg>