<svg xmlns="http://www.w3.org/2000/svg" viewBox="0 0 2000 2000"><g fill="#29abe2"><path d="M1416.23 490.33H668.4c-146.52 0-265.29 118.78-265.29 265.29v937.19h1278.42V755.62c0-146.52-118.78-265.29-265.29-265.29z"/><ellipse cx="812.31" cy="264.92" rx="185.87" ry="174.83"/><ellipse cx="1272.32" cy="264.92" rx="185.87" ry="174.83"/></g><path fill="#fff" d="M1480.29 739.26c-1.5-26.91-2.79-53.83-4.88-80.7-1.92-24.79-10.72-33.3-36.74-31.3-44.72 3.43-89.26 8.87-133.89 13.44-10.41 1.06-18.69 5.58-18.5 15.96.23 12.08 10.03 15.25 21.24 15.01 18.6-.41 37.17-.98 55.73-1.54 7.44-.23 14.9-.63 26.56-1.12l-167.1 144.6c-118.71-60.62-233.65-53.25-337.5 11.55l-73.85-58.29c10.36-8.64 19.02-14.84 26.36-22.2 14.85-14.9 16.44-28.91 5.43-38.46-9.61-8.34-25.47-5.87-39.23 6.59-7.22 6.52-13.82 13.66-23.16 23l-89.25-80.5c.73-1.66 1.45-3.32 2.18-4.99 21.21 1.61 42.4 3.44 63.63 4.77 22.96 1.44 37.16-6.74 36.93-20.71-.22-13.08-12.78-21.26-35.04-20.63-37.14 1.09-74.24 2.75-111.31 4.99-24.2 1.46-31.94 7.88-34.52 30.22-4.01 34.72-6.82 69.58-9.22 104.44.03 8.69 1.35 17.34 3.91 25.7 2.17 9.26 7.92 16.06 18.88 16.39 4.74.31 9.43-1.12 13.08-3.98s5.99-6.94 6.53-11.39c2.76-12 4.23-24.22 4.4-36.49-.15-20.02-2.14-40.04-3.35-60.06l4.67-1.66 92.96 90.02c-12.2 13.8-23.41 25.78-33.71 38.4-5.59 6.85-7.36 16.07.42 21.7 6.21 3.6 13.61 4.91 20.79 3.69 5.35-.83 10.1-6.31 14.66-10.2 8.97-7.63 17.61-15.59 27.54-24.44l64.37 64.87c-.07.11-1.39 2.71-3.01 5.11-41.93 62.46-56.67 129.28-41.13 202.55 21.92 103.31 88 168.75 193.47 187.46 18.01 3.19 36.48 4.02 52.33 5.68v110.74c-8.52.8-13.77 1.65-19.02 1.71-19.37.19-38.74-.17-58.1.23-16.29.33-23.97 5.92-25.09 17.05-1.2 11.9 6.79 20.96 22.19 23.43 9.96 1.42 20.02 2.17 30.09 2.23 16.03.34 32.08.09 49.21.09.63 8.85 1.21 15.24 1.53 21.63 1.44 28.37 2.45 56.77 4.42 85.11.68 8.67 2.73 17.2 6.09 25.3 1.63 4.56 4.78 8.5 8.98 11.23 4.21 2.73 9.25 4.11 14.35 3.92 5.1.05 10.08-1.45 14.22-4.25 4.14-2.81 7.21-6.78 8.78-11.35a57.9 57.9 0 0 0 4.76-18.88c.62-11.61.15-23.29-.37-34.93-1.13-25.31-2.57-50.61-4.02-78.29 20.66 0 39.92.7 59.09-.27 11.47-.32 22.81-2.45 33.54-6.29 10.85-4.22 15.25-14.25 12.99-25.56-.6-4.79-2.94-9.24-6.64-12.59-3.7-3.34-8.51-5.38-13.63-5.76-13.06-.43-26.13.02-39.12 1.34-15.93.99-31.82 2.39-49.89 3.78-1.68-38.74-3.25-74.72-4.85-111.41 15.67-2.69 29.31-4.78 42.84-7.38 66.47-12.76 120.52-42.98 150.79-101.92 40.75-79.31 45.63-160.92 8.99-242.95-9.81-21.97-23.43-42.43-36.16-65.11 54.41-51.53 112.58-101.14 176.11-151.9-1.35 16.22-2.35 27.68-3.26 39.14a80 80 0 0 0-.91 17.29c.54 5.88 3.27 11.4 7.7 15.58 4.42 4.19 10.27 6.77 16.52 7.32 6.64-.06 13.03-2.4 17.95-6.59 4.93-4.19 8.04-9.93 8.77-16.14.63-4.32.79-8.69.46-13.05zm-249.1 401.44c-7.35 15-17.94 28.4-31.1 39.33-13.16 10.94-28.59 19.18-45.32 24.19-54.43 17.65-110.24 23.11-167.1 12.32-61.45-11.66-105.71-44.49-129.51-98.98-27.75-63.51-34.98-127.81-2.52-192.65 15.67-31.99 42.15-58.2 75.33-74.54 33.09-16.78 67.14-29.48 92.67-26.34h.02c55.46.04 96.3 7.52 134.94 23.71 23.93 10.03 42.07 27.4 56.25 47.77 54.77 78.69 57.03 161.16 16.35 245.19z"/><text fill="#29abe2" font-family="AdelleSansDevanagari-Regular, 'Adelle Sans Devanagari'" font-size="238.11" transform="matrix(.98 0 0 1 403.11 1932.72)"><tspan x="0" y="0">Gender</tspan><tspan x="797.91" y="0" letter-spacing="-.01em">b</tspan><tspan x="932.92" y="0">ase</tspan></text></svg>