<svg xmlns="http://www.w3.org/2000/svg" width="215" height="48" fill="none"><path fill="#000" d="M57.588 9.6h6L73.828 38h-5.2l-2.36-6.88h-11.36L52.548 38h-5.2zm7.16 17.16-4.16-12.16-4.16 12.16zm23.694-2.24q-.279-1.96-1.56-3.04-1.28-1.08-3.04-1.08-2.52 0-3.92 1.84-1.36 1.84-1.36 5.16c0 3.32.454 3.933 1.36 5.16q1.4 1.84 3.92 1.84 1.88 0 3.16-1.12 1.28-1.16 1.6-3.28l5.12.24q-.28 2.52-1.64 4.4-1.36 1.84-3.52 2.84-2.12 1-4.72 1-3.12 0-5.48-1.36-2.32-1.36-3.64-3.88-1.28-2.52-1.28-5.84 0-3.36 1.28-5.84 1.32-2.52 3.64-3.88 2.36-1.36 5.48-1.36 2.52 0 4.64.96t3.44 2.76q1.36 1.8 1.64 4.2zm11.486-7.72.12 3.4q.8-1.84 2.32-2.84 1.56-1.04 3.68-1.04 2.24 0 3.8 1.16 1.6 1.12 2.28 3.2.76-2.16 2.36-3.24 1.641-1.12 3.96-1.12 2.12 0 3.68.92c1.56.92 1.84 1.52 2.4 2.72q.84 1.8.84 4.4V38h-4.96V25.92q0-2.72-.88-4.12-.84-1.44-2.56-1.44-1.36 0-2.32.64t-1.48 1.88q-.48 1.24-.48 3.04V38h-4.56V25.92q0-1.8-.4-3.04-.36-1.24-1.16-1.88-.76-.64-1.88-.64-1.36 0-2.32.68-.96.64-1.48 1.88-.48 1.24-.48 3V38h-4.96V16.8zm26.723 10.6q0-3.36 1.28-5.84 1.28-2.52 3.64-3.88t5.48-1.36q2.76 0 4.96 1.24t3.52 3.76q1.32 2.48 1.4 6.12v1.32h-15.08q.16 2.72 1.52 4.24 1.36 1.48 3.68 1.48 1.48 0 2.68-.76a4.8 4.8 0 0 0 1.84-2.2l5.08.36q-.96 3.04-3.6 4.84-2.6 1.76-6 1.76-3.12 0-5.48-1.36t-3.64-3.88-1.28-5.84m15.16-2.04q-.32-2.6-1.64-3.84-1.28-1.24-3.12-1.24-2.16 0-3.48 1.36-1.32 1.32-1.68 3.72zM163.139 9.6V38h-5.04V9.6zm8.322 7.2.24 5.88-.64-.36q.48-3.08 2.32-4.52 1.88-1.48 4.6-1.48 3.48 0 5.36 2.2 1.88 2.16 1.88 5.84V38h-4.96V25.92q0-1.88-.36-3.08t-1.2-1.84q-.8-.64-2.16-.64-2.16 0-3.4 1.44-1.2 1.4-1.2 4.12V38h-4.96V16.8zm30.003 7.72q-.279-1.96-1.56-3.04-1.28-1.08-3.04-1.08-2.52 0-3.92 1.84-1.36 1.84-1.36 5.16c0 3.32.454 3.933 1.36 5.16q1.4 1.84 3.92 1.84 1.88 0 3.16-1.12 1.28-1.16 1.6-3.28l5.12.24q-.28 2.52-1.64 4.4-1.36 1.84-3.52 2.84-2.12 1-4.72 1-3.12 0-5.48-1.36-2.32-1.36-3.64-3.88-1.28-2.52-1.28-5.84 0-3.36 1.28-5.84 1.32-2.52 3.64-3.88 2.36-1.36 5.48-1.36 2.52 0 4.64.96t3.44 2.76q1.36 1.8 1.64 4.2zm11.443 8.16V38h-5.6v-5.32z"/><path fill="#171717" fill-rule="evenodd" d="m7.839 40.783 16.03-28.054L20 6 0 40.783zm8.214 0H40L27.99 19.894l-4.02 7.032 3.976 6.914H20.02z" clip-rule="evenodd"/></svg>